<?xml version="1.0" standalone="no"?>
<!DOCTYPE svg PUBLIC "-//W3C//DTD SVG 20010904//EN"
 "http://www.w3.org/TR/2001/REC-SVG-20010904/DTD/svg10.dtd">
<svg version="1.0" xmlns="http://www.w3.org/2000/svg"
 width="584.000000pt" height="584.000000pt" viewBox="0 0 584.000000 584.000000"
 preserveAspectRatio="xMidYMid meet">

<g transform="translate(0.000000,584.000000) scale(0.100000,-0.100000)"
fill="#000000" stroke="none">
<path d="M2655 5349 c-220 -20 -428 -61 -585 -115 -743 -256 -1316 -846 -1561
-1609 -75 -231 -109 -463 -109 -742 0 -267 23 -433 99 -718 26 -97 98 -279
151 -385 309 -615 833 -1074 1460 -1280 76 -25 129 -39 265 -70 63 -15 169
-28 323 -41 267 -22 629 24 912 118 246 81 516 226 729 390 113 88 315 286
405 398 249 309 434 700 510 1075 64 317 62 727 -5 1050 -81 394 -295 807
-579 1118 -288 315 -597 526 -985 672 -299 113 -711 168 -1030 139z m330 -489
c156 -300 304 -585 552 -1065 278 -537 340 -656 571 -1105 67 -132 203 -392
429 -825 46 -87 83 -165 83 -172 0 -11 -45 -13 -227 -11 l-228 3 -58 110 c-32
61 -103 198 -159 305 -96 186 -285 550 -408 785 -31 61 -108 209 -170 330 -62
121 -138 270 -170 330 -32 61 -110 214 -175 340 -65 127 -137 266 -159 310
-23 43 -45 79 -51 78 -5 0 -30 -40 -55 -89 -180 -355 -420 -824 -460 -899 -55
-105 -172 -332 -330 -640 -62 -121 -153 -299 -203 -395 -50 -96 -135 -260
-188 -365 l-97 -190 -231 -3 c-127 -1 -231 1 -231 6 0 4 4 12 9 17 5 6 48 87
96 180 121 236 281 549 385 750 155 300 439 854 547 1065 58 113 136 264 173
335 151 291 478 927 529 1027 47 92 56 105 66 90 7 -9 79 -145 160 -302z m689
-427 c319 -160 610 -463 755 -785 90 -201 151 -479 151 -688 0 -122 -51 -452
-77 -493 -3 -5 -34 46 -69 113 -35 67 -88 167 -117 223 -30 56 -128 244 -217
417 -90 173 -218 421 -285 550 -67 129 -180 348 -250 485 -71 138 -132 255
-136 261 -5 6 -6 13 -3 16 7 7 154 -52 248 -99z m-1466 79 c-5 -11 -392 -769
-458 -897 -31 -60 -169 -328 -305 -595 -136 -267 -253 -491 -260 -498 -10 -11
-18 14 -40 130 -37 190 -39 434 -6 598 58 285 165 517 336 735 125 158 218
243 393 362 128 87 354 197 340 165z m897 -1298 c158 -305 285 -558 282 -561
-3 -3 -18 4 -34 15 -82 58 -222 113 -361 141 -76 16 -279 14 -361 -4 -118 -25
-230 -66 -312 -116 -44 -26 -79 -44 -79 -41 0 8 217 438 375 742 58 113 125
244 148 292 23 48 45 87 49 88 3 0 135 -250 293 -556z m-169 -625 c160 -28
325 -112 397 -202 19 -23 99 -159 179 -302 80 -143 158 -280 172 -305 14 -25
26 -48 26 -52 0 -5 -76 -8 -168 -8 -262 0 -314 24 -397 181 -55 103 -118 175
-186 210 -61 31 -169 37 -240 14 -76 -26 -160 -108 -209 -206 -50 -97 -81
-134 -144 -167 -50 -26 -56 -27 -253 -30 -145 -3 -203 0 -203 8 0 12 198 376
285 525 30 52 76 112 107 141 162 152 421 231 634 193z m-58 -698 c16 -16 47
-65 70 -108 67 -129 185 -227 321 -269 35 -10 118 -14 344 -14 226 0 298 -3
295 -12 -9 -26 -200 -152 -323 -213 -273 -136 -542 -195 -829 -181 -299 15
-584 110 -835 278 -96 64 -151 107 -151 118 0 4 125 8 277 9 249 2 283 4 337
22 135 46 240 136 306 264 69 134 127 167 188 106z"/>
</g>
</svg>
